<svg width="21" height="21" viewBox="0 0 21 21" fill="none" xmlns="http://www.w3.org/2000/svg">
<path d="M14.7966 13.8445C14.8599 13.581 14.6959 13.5397 14.5667 13.3834C13.7245 12.372 12.5336 11.4563 11.6333 10.4746L10.1143 11.5506L8.7232 10.4707L8.49845 10.5392C7.64725 11.5273 6.48475 12.394 5.66067 13.3834C5.5315 13.5397 5.36746 13.581 5.43075 13.8445H14.7966ZM15.4102 7.0892C15.1467 7.0259 15.1053 7.18994 14.9503 7.31911C14.2412 7.90939 13.5669 8.62626 12.8811 9.24108C12.4716 9.60662 11.84 9.64408 12.4161 10.3144C13.3125 11.3568 14.4246 12.2739 15.4102 13.231V7.0892ZM4.6635 7.0892V12.9998C4.6635 13.0179 4.88954 13.3111 4.97092 13.1535L8.04508 9.93083L5.51083 7.54644L4.6635 7.0892ZM14.7966 6.47437H5.43075C5.33517 6.85282 5.52246 6.72107 5.63225 6.80762C6.96912 7.86548 8.18716 9.24625 9.49691 10.3157C9.69325 10.4759 9.9477 10.5573 10.1143 10.7652C11.6592 9.30438 13.3939 8.07214 14.7966 6.47437ZM8.91825 0.05874C17.1242 -0.797624 22.9741 7.89648 18.9183 15.1258C14.8806 22.3229 3.99958 21.7417 0.794963 14.1054C-1.78837 7.95073 2.18738 0.76269 8.91825 0.05874Z" fill="#F4F3EF"/>
</svg>
