<svg width="21" height="21" viewBox="0 0 21 21" fill="none" xmlns="http://www.w3.org/2000/svg">
<path d="M11.6846 20.0781V13.0154H13.9876L14.4488 10.0988H11.9145L11.6846 9.86763V7.56461C11.6846 7.52716 12.0979 6.99112 12.1444 6.94979C12.6275 6.52354 13.9708 6.561 14.6012 6.56746V4.11074C12.7192 3.85887 10.3955 3.59408 9.15552 5.34297C8.17127 6.73021 8.66469 8.27115 8.46448 9.71909C8.4464 9.85471 8.32498 10.0988 8.23069 10.0988H6.00386V13.0154H8.4606V20.0781C5.49882 19.7035 2.71786 17.6524 1.26861 15.0639C-2.15172 8.96089 1.70261 1.23423 8.54069 0.122123C13.5356 -0.690326 18.7203 2.64213 19.9435 7.5969C21.035 12.0195 19.0678 16.8748 15.0158 19.0332C14.0729 19.5356 12.7347 19.9993 11.6846 20.0781Z" fill="#F4F3EF"/>
</svg>
