<svg width="21" height="21" viewBox="0 0 21 21" fill="none" xmlns="http://www.w3.org/2000/svg">
<path d="M6.70798 4.09341C5.42019 4.45636 4.45015 5.26623 4.14919 6.60179C3.84952 7.93349 3.8676 11.1678 3.98515 12.5912C4.07556 13.6813 4.52248 14.942 5.47185 15.5568C5.79219 15.7648 6.77385 16.1419 7.14198 16.191C8.35227 16.3486 11.7364 16.3292 12.97 16.1897C14.0976 16.0606 15.2859 15.4483 15.7832 14.3956C16.2056 13.4979 16.0519 12.8818 16.1242 11.9738C16.2611 10.23 16.3399 8.50956 16.1178 6.75292C15.9498 5.41477 14.5858 4.21482 13.2761 4.06758C11.2391 3.83895 8.79014 4.20578 6.70798 4.09341ZM2.94794 2.86763C8.36777 -2.55213 18.0527 0.0996247 19.9217 7.55503C22.0607 16.089 13.0229 23.2331 5.26648 18.9861C-0.628683 15.7583 -1.82218 7.63641 2.94794 2.86763Z" fill="#F4F3EF"/>
<path d="M12.4041 12.3265C12.4338 12.2968 12.8381 11.7194 12.8768 11.6484C13.5575 10.4252 13.2798 8.66082 12.2077 7.74891C11.0775 6.78792 9.51979 6.6523 8.294 7.52546C7.85096 7.84191 7.24775 8.56394 7.09017 9.08448C6.32421 11.6058 8.69958 13.985 11.2132 13.055C11.447 12.9672 12.2465 12.4841 12.4041 12.3265ZM13.9489 7.42212C14.4772 6.89513 13.7887 5.75331 13.0447 6.13564C12.9711 6.17439 12.6288 6.53734 12.6056 6.61742C12.3899 7.32912 13.449 7.92328 13.9489 7.42212ZM7.01525 5.17207C7.89229 5.02353 8.07958 5.13848 9.9667 5.11523C11.8745 5.09199 12.8872 4.75357 13.7887 5.31027C14.2447 5.59185 14.5508 5.99614 14.5508 5.99614C14.5508 5.99614 14.8802 6.43143 15.0429 7.06434C15.2561 7.88841 15.3064 10.0493 15.052 12.9026C15.0468 13.0783 15.0055 13.7021 14.5198 14.2588C14.0458 14.8013 13.4542 14.9331 13.2785 14.9667C13.0241 14.9938 8.86879 15.42 6.98683 14.9667C6.05942 14.7419 5.69904 14.3079 5.60475 14.1852C5.40454 13.9243 5.27279 13.5988 5.22242 13.1997C4.98604 11.3139 4.96021 8.78869 5.21983 6.90805C5.32963 6.11239 6.2325 5.30382 7.01525 5.17207Z" fill="#F4F3EF"/>
<path d="M8.62982 11.6099C8.57557 11.5557 8.18161 10.862 8.16224 10.7729C7.99303 10.0173 8.20615 9.06148 8.82486 8.56807C10.6603 7.10592 13.1132 9.41022 11.7414 11.3309C11.1989 12.0904 10.4976 12.226 9.59599 12.1033C9.42807 12.0801 8.73186 11.7119 8.62982 11.6099Z" fill="#F4F3EF"/>
</svg>
