<svg width="21" height="21" viewBox="0 0 21 21" fill="none" xmlns="http://www.w3.org/2000/svg">
<path d="M4.63368 15.9728C5.58306 15.7661 6.53243 15.5607 7.4818 15.3541C7.6523 15.4367 10.5237 16.762 13.2245 15.0441C13.3666 14.9537 15.8079 13.3417 15.9254 10.3437C15.9396 9.98984 15.7614 8.14923 14.8985 6.85888C11.8812 2.34327 4.80806 4.3337 4.33014 9.75734C4.31981 10.2004 4.3521 10.7907 4.52389 11.461C4.64789 11.9467 4.81581 12.3548 4.97468 12.6778C4.79772 13.4463 4.66597 14.3207 4.63626 15.2856C4.62981 15.5207 4.62851 15.7506 4.63368 15.9728ZM9.96438 0.0325041L10.2305 0.000212073C15.0329 0.228834 19.254 3.57679 20.1078 8.40498C21.7366 17.608 10.8518 23.9965 3.63264 17.9722C-3.59294 11.9415 0.70831 0.245626 9.96438 0.0325041Z" fill="#F4F3EF"/>
<path d="M12.9041 11.4305C12.8395 11.362 11.77 10.9293 11.6189 10.9423C11.2546 10.9707 11.079 11.4835 10.8335 11.5532C10.3363 11.6966 8.95159 10.4269 8.79659 9.93348C8.64934 9.46461 9.06525 9.28249 9.197 8.8795C9.04329 8.585 8.78496 7.5026 8.53696 7.43156C7.54367 7.1461 7.13938 8.35379 7.24659 9.18303C7.32409 9.78494 8.18821 11.0301 8.62221 11.4912C9.35588 12.2701 10.9795 13.1574 12.0542 12.9211C12.6005 12.8022 13.3148 11.8671 12.9041 11.4305ZM5.86192 14.6351L6.17063 12.8681C4.73301 10.4734 5.33751 7.45481 7.80459 6.06241C12.0942 3.64314 16.6719 8.50879 14.1312 12.6963C13.0785 14.431 10.8284 15.277 8.88829 14.7565C8.54988 14.6661 8.00996 14.3367 7.77617 14.3212C7.43 14.298 6.04276 14.8159 5.86192 14.6351Z" fill="#F4F3EF"/>
</svg>
