<svg width="21" height="21" viewBox="0 0 21 21" fill="none" xmlns="http://www.w3.org/2000/svg">
<path d="M7.55178 4.74835C6.99249 4.72898 6.60887 4.74965 6.20845 4.74835C5.76024 4.74706 5.31204 4.74577 4.86512 4.74835L8.84087 10.6822L8.62257 11.1937C7.44587 12.5215 6.22395 13.8338 5.09504 15.1888C4.96587 15.3438 4.80183 15.3851 4.86512 15.6486L5.78995 15.5763L9.24128 11.5037C9.45182 11.474 9.57712 11.6755 9.69466 11.8176C10.4968 12.7837 11.4139 14.2704 12.1579 15.3489C12.2212 15.4393 12.2483 15.5388 12.2341 15.6486H15.4594L11.3054 9.43188L11.3854 9.04309C12.4859 7.7889 13.5903 6.53858 14.6908 5.28568C14.8432 5.1126 15.0589 5.03252 14.9982 4.74835L14.0734 4.82069C13.2752 5.77134 12.442 6.66904 11.6179 7.58611C11.3893 7.83927 11.0354 8.58585 10.6234 8.58714L8.06587 4.77419C7.94574 4.76644 7.76749 4.7561 7.55178 4.74835ZM9.73341 0.0222034C11.2434 -0.140545 13.8577 0.616362 15.2049 1.39523C22.7172 5.73259 21.5664 17.0332 13.3527 19.7612C7.54662 21.6896 0.950083 17.8534 0.109209 11.731C-0.753624 5.45618 3.59283 0.682237 9.73341 0.0222034Z" fill="#F4F3EF"/>
<path d="M14.077 14.8556C13.5694 14.7936 12.9055 15.0455 12.5373 14.6296L6.24692 5.49115C6.65121 5.47178 7.0555 5.4524 7.45979 5.43303C7.56829 5.52861 7.67679 5.62419 7.78529 5.71848L14.077 14.8556Z" fill="#F4F3EF"/>
</svg>
