<svg width="21" height="21" viewBox="0 0 21 21" fill="none" xmlns="http://www.w3.org/2000/svg">
<path d="M7.11296 5.83058C5.35242 5.97783 4.49733 6.07342 4.18604 6.74249C4.022 7.0964 3.84375 7.96827 3.80888 8.36093C3.69004 9.68874 3.74688 11.7928 3.98842 13.0871C4.07883 13.5689 4.549 14.1953 5.02562 14.3529C6.23721 14.7533 8.0985 14.5557 9.41599 14.5686C9.79316 14.5712 10.1006 14.5712 10.4777 14.5686C11.7475 14.5583 14.8694 14.8205 15.7813 14.039C16.0345 13.822 16.3148 12.9631 16.3626 12.6234C16.5822 11.0346 16.5667 9.33871 16.391 7.7461C16.3458 7.3289 16.1494 6.74378 15.8614 6.43379C15.2466 5.77246 14.3192 5.81379 12.9435 5.82025C9.68466 5.83575 9.56841 5.62521 7.11296 5.83058ZM9.74795 0.0220315C11.2579 -0.139425 13.8722 0.617483 15.2194 1.39506C21.9296 5.2713 21.918 15.2467 15.067 19.0041C9.2752 22.1803 1.82746 19.0803 0.305879 12.6247C-1.23895 6.06696 3.24571 0.722106 9.74795 0.0220315Z" fill="#F4F3EF"/>
<path d="M8.87189 8.43396L9.59264 8.71037L11.9435 10.0459C11.9874 10.2449 11.8285 10.3159 11.6929 10.4102C10.8546 10.9927 9.77476 11.4758 8.87189 11.9653V8.43396Z" fill="#F4F3EF"/>
</svg>
